Coordinates
version=1
nRows=12
nColumns=24
inDegrees=yes

Units are S.I. units (second, meters, Newtons, ...)
Angles are in degrees.

endheader
time	pelvis_tilt	pelvis_list	pelvis_rotation	pelvis_tx	pelvis_ty	pelvis_tz	hip_flexion_r	hip_adduction_r	hip_rotation_r	knee_angle_r	ankle_angle_r	subtalar_angle_r	mtp_angle_r	hip_flexion_l	hip_adduction_l	hip_rotation_l	knee_angle_l	ankle_angle_l	subtalar_angle_l	mtp_angle_l	lumbar_extension	lumbar_bending	lumbar_rotation
      6.83000000	     34.29240264	      1.36900214	      1.49946830	      2.12524927	      0.67927894	     -0.13236249	    -29.94987961	      3.01800456	     -7.92055899	    -11.07864023	     18.08171069	     10.10413134	      0.00000000	    -15.67913256	     -3.64454352	     -8.99123531	    -63.40088544	      5.18110536	     -3.02439671	      0.00000000	    -62.07927521	      0.48017508	     -4.40186968
      6.83500000	     34.22745782	      1.44182635	      1.21065741	      2.13062325	      0.67960228	     -0.13196470	    -30.60183068	      2.85822738	     -7.82840157	    -10.66315751	     18.26570215	     10.21643105	      0.00000000	    -14.91560742	     -3.27430375	     -9.24104451	    -62.60777357	      5.78209089	     -2.80437099	      0.00000000	    -62.12663799	      0.20013124	     -4.19154289
      6.84000000	     34.30026566	      1.42222074	      0.73480840	      2.13605576	      0.67996006	     -0.13164721	    -31.38946939	      2.65639840	     -7.52771175	    -10.26932275	     18.50872782	     10.44509016	      0.00000000	    -14.42282751	     -2.92285546	     -9.68996760	    -61.62632380	      6.35330631	     -2.54881648	      0.00000000	    -62.28564625	     -0.07363619	     -3.82760184
      6.84500000	     34.19185116	      1.48065422	      0.51192143	      2.14149070	      0.68009720	     -0.13139400	    -31.98984981	      2.53152443	     -7.45495254	     -9.86837602	     18.72293508	     10.49569227	      0.00000000	    -13.64965222	     -2.58158451	     -9.85772878	    -60.67974210	      6.82640928	     -2.19106384	      0.00000000	    -62.27165126	     -0.25203622	     -3.66177436
      6.85000000	     34.22778002	      1.45631584	      0.11122936	      2.14689246	      0.68025837	     -0.13114091	    -32.71707063	      2.36348277	     -7.24204133	     -9.50328561	     18.95680228	     10.65787212	      0.00000000	    -13.13893468	     -2.26926455	    -10.22978558	    -59.56077154	      7.32015721	     -1.86258236	      0.00000000	    -62.40933282	     -0.48786933	     -3.29773637
      6.85500000	     34.10913852	      1.47534302	     -0.07841132	      2.15232748	      0.68021565	     -0.13098228	    -33.28012395	      2.28059203	     -7.20345576	     -9.14946432	     19.19600483	     10.69825373	      0.00000000	    -12.40801806	     -1.98049271	    -10.37075205	    -58.45109003	      7.73586562	     -1.44837981	      0.00000000	    -62.38309034	     -0.59767300	     -3.12667613
      6.86000000	     34.14186490	      1.42601763	     -0.44744256	      2.15773125	      0.68020495	     -0.13079572	    -33.98547235	      2.13983692	     -7.01924273	     -8.81779113	     19.45473056	     10.84748118	      0.00000000	    -11.94691860	     -1.70945754	    -10.70809920	    -57.17094226	      8.16786872	     -1.06243237	      0.00000000	    -62.52046249	     -0.78410247	     -2.76183468
      6.86500000	     34.10084526	      1.39030146	     -0.70483329	      2.16315899	      0.68005454	     -0.13067684	    -34.60907871	      2.05178402	     -6.92908522	     -8.50026181	     19.72092366	     10.92031518	      0.00000000	    -11.39938346	     -1.46089221	    -10.92903275	    -55.85112287	      8.54693009	     -0.62739823	      0.00000000	    -62.57874048	     -0.89658276	     -2.49482400
      6.87000000	     33.98461641	      1.36161546	     -0.86662957	      2.16859697	      0.67976564	     -0.13060619	    -35.14780609	      2.01584465	     -6.93053073	     -8.19439665	     19.99900996	     10.95687995	      0.00000000	    -10.76634247	     -1.23966352	    -11.05645494	    -54.49141856	      8.86333256	     -0.15718510	      0.00000000	    -62.56150999	     -0.94824427	     -2.29128263
      6.87500000	     33.93056683	      1.29867924	     -1.08957034	      2.17403413	      0.67944536	     -0.13054458	    -35.74066770	      1.96340722	     -6.89818434	     -7.91132995	     20.30253648	     11.06714163	      0.00000000	    -10.26819695	     -1.03850847	    -11.25538308	    -53.00955041	      9.19472944	      0.33377009	      0.00000000	    -62.60750438	     -1.01239104	     -2.02396741
      6.88000000	     34.01268185	      1.21168346	     -1.40965868	      2.17947852	      0.67916411	     -0.13045785	    -36.47048045	      1.86332599	     -6.79225817	     -7.65162442	     20.59952120	     11.17540335	      0.00000000	    -10.01279674	     -0.82809222	    -11.55437487	    -51.35687296	      9.49225861	      0.71915440	      0.00000000	    -62.78066898	     -1.13965350	     -1.64256575
      6.88500000	     33.86975412	      1.14684002	     -1.49753622	      2.18491315	      0.67862247	     -0.13050684	    -36.94863090	      1.89386340	     -6.88110118	     -7.41286685	     20.89942203	     11.18492329	      0.00000000	     -9.44625176	     -0.66759039	    -11.62944355	    -49.75505480	      9.77048353	      1.19830683	      0.00000000	    -62.74696853	     -1.09857757	     -1.45025922
